<svg xmlns="http://www.w3.org/2000/svg" xmlns:xlink="http://www.w3.org/1999/xlink" viewBox="0 0 350 270" width="350" height="270"><path d="M 198.359,182.605 C 195.537,183.075 195.527,182.879 192.695,183.152" stroke-width="5.416" stroke="black" fill="none" stroke-linecap="round"></path><path d="M 192.695,183.152 C 185.456,183.022 185.468,183.349 178.223,183.152" stroke-width="4.266" stroke="black" fill="none" stroke-linecap="round"></path><path d="M 178.223,183.152 C 172.511,181.440 173.940,183.229 169.664,183.566" stroke-width="4.422" stroke="black" fill="none" stroke-linecap="round"></path><path d="M 169.664,183.566 C 167.339,187.452 166.815,185.694 166.832,191.660" stroke-width="4.432" stroke="black" fill="none" stroke-linecap="round"></path><path d="M 166.832,191.660 C 165.885,200.537 165.790,200.303 166.566,209.270" stroke-width="3.897" stroke="black" fill="none" stroke-linecap="round"></path><path d="M 166.566,209.270 C 165.375,218.066 167.121,216.379 169.305,223.344" stroke-width="3.914" stroke="black" fill="none" stroke-linecap="round"></path><path d="M 169.305,223.344 C 176.453,228.039 173.990,229.635 183.797,232.406" stroke-width="3.793" stroke="black" fill="none" stroke-linecap="round"></path><path d="M 183.797,232.406 C 193.236,236.910 192.697,237.699 201.793,242.664" stroke-width="3.550" stroke="black" fill="none" stroke-linecap="round"></path><path d="M 201.793,242.664 C 208.223,245.891 207.068,246.211 211.461,251.008" stroke-width="3.890" stroke="black" fill="none" stroke-linecap="round"></path><path d="M 211.461,251.008 C 215.853,257.090 214.175,255.297 213.695,261.477" stroke-width="4.154" stroke="black" fill="none" stroke-linecap="round"></path><path d="M 213.695,261.477 C 206.432,272.623 208.501,272.036 196.758,280.898" stroke-width="3.403" stroke="black" fill="none" stroke-linecap="round"></path><path d="M 196.758,280.898 C 187.309,287.505 188.151,288.260 177.133,292.750" stroke-width="3.373" stroke="black" fill="none" stroke-linecap="round"></path><path d="M 177.133,292.750 C 159.540,302.712 159.357,301.913 140.855,309.715" stroke-width="2.744" stroke="black" fill="none" stroke-linecap="round"></path><path d="M 140.855,309.715 C 123.708,314.817 124.189,315.962 106.430,319.250" stroke-width="2.714" stroke="black" fill="none" stroke-linecap="round"></path><path d="M 229.609,198.820 C 235.477,199.298 234.871,197.938 240.133,197.055" stroke-width="5.161" stroke="black" fill="none" stroke-linecap="round"></path><path d="M 240.133,197.055 C 245.788,193.221 246.020,194.218 250.695,188.660" stroke-width="4.311" stroke="black" fill="none" stroke-linecap="round"></path><path d="M 250.695,188.660 C 253.770,183.737 252.835,186.672 254.227,183.957" stroke-width="4.625" stroke="black" fill="none" stroke-linecap="round"></path><path d="M 254.227,183.957 C 253.468,186.780 254.680,184.176 252.516,189.539" stroke-width="5.004" stroke="black" fill="none" stroke-linecap="round"></path><path d="M 252.516,189.539 C 243.763,206.960 246.295,207.553 239.879,225.504" stroke-width="2.964" stroke="black" fill="none" stroke-linecap="round"></path><path d="M 239.879,225.504 C 234.354,252.783 234.277,252.245 233.543,280.109" stroke-width="2.310" stroke="black" fill="none" stroke-linecap="round"></path><path d="M 233.543,280.109 C 233.963,299.166 232.987,298.852 237.145,317.641" stroke-width="2.549" stroke="black" fill="none" stroke-linecap="round"></path><path d="M 237.145,317.641 C 240.041,326.679 238.746,326.939 243.109,335.656" stroke-width="3.188" stroke="black" fill="none" stroke-linecap="round"></path><path d="M 243.109,335.656 C 246.413,340.621 243.973,338.183 245.008,340.648" stroke-width="4.189" stroke="black" fill="none" stroke-linecap="round"></path><path d="M 245.008,340.648 C 235.521,340.680 241.835,340.709 233.953,335.832" stroke-width="4.578" stroke="black" fill="none" stroke-linecap="round"></path><path d="M 233.953,335.832 C 230.436,321.659 230.689,325.739 235.344,310.766" stroke-width="3.513" stroke="black" fill="none" stroke-linecap="round"></path><path d="M 235.344,310.766 C 244.499,295.242 242.114,295.737 257.309,283.988" stroke-width="2.971" stroke="black" fill="none" stroke-linecap="round"></path><path d="M 257.309,283.988 C 269.842,275.623 268.372,274.269 283.090,268.820" stroke-width="2.957" stroke="black" fill="none" stroke-linecap="round"></path><path d="M 283.090,268.820 C 290.794,264.186 288.256,266.168 294.137,265.078" stroke-width="3.705" stroke="black" fill="none" stroke-linecap="round"></path><path d="M 294.137,265.078 C 294.218,268.422 296.017,265.580 293.535,271.609" stroke-width="4.682" stroke="black" fill="none" stroke-linecap="round"></path><path d="M 293.535,271.609 C 290.705,280.359 292.726,275.387 291.152,279.008" stroke-width="4.609" stroke="black" fill="none" stroke-linecap="round"></path><path d="M 291.152,279.008 C 293.474,270.940 292.117,276.094 296.359,263.078" stroke-width="4.522" stroke="black" fill="none" stroke-linecap="round"></path><path d="M 296.359,263.078 C 299.960,253.929 299.745,253.854 303.695,244.836" stroke-width="3.806" stroke="black" fill="none" stroke-linecap="round"></path><path d="M 303.695,244.836 C 306.329,238.742 304.805,242.134 306.051,239.488" stroke-width="4.451" stroke="black" fill="none" stroke-linecap="round"></path><path d="M 306.051,239.488 C 304.300,244.302 305.565,240.794 302.168,248.941" stroke-width="4.318" stroke="black" fill="none" stroke-linecap="round"></path><path d="M 302.168,248.941 C 295.572,258.040 299.989,253.683 297.430,258.250" stroke-width="4.308" stroke="black" fill="none" stroke-linecap="round"></path><path d="M 297.430,258.250 C 304.880,251.689 300.369,258.581 311.762,250.023" stroke-width="4.654" stroke="black" fill="none" stroke-linecap="round"></path><path d="M 311.762,250.023 C 313.672,254.313 314.066,249.466 315.801,253.805" stroke-width="5.108" stroke="black" fill="none" stroke-linecap="round"></path><path d="M 315.801,253.805 C 320.557,250.751 320.093,252.780 324.605,246.957" stroke-width="4.904" stroke="black" fill="none" stroke-linecap="round"></path><path d="M 324.605,246.957 C 327.038,242.755 327.897,243.872 330.480,240.047" stroke-width="4.570" stroke="black" fill="none" stroke-linecap="round"></path><path d="M 330.480,240.047 C 333.022,239.249 332.501,238.457 335.531,238.359" stroke-width="5.126" stroke="black" fill="none" stroke-linecap="round"></path><path d="M 335.531,238.359 C 338.612,236.698 338.727,237.226 341.891,236.000" stroke-width="4.795" stroke="black" fill="none" stroke-linecap="round"></path><path d="M 341.891,236.000 C 344.990,235.607 344.889,235.362 348.086,235.688" stroke-width="4.768" stroke="black" fill="none" stroke-linecap="round"></path><path d="M 348.086,235.688 C 354.579,237.064 354.451,235.853 360.813,236.492" stroke-width="4.730" stroke="black" fill="none" stroke-linecap="round"></path><path d="M 360.813,236.492 C 364.667,234.493 364.909,236.117 368.746,233.793" stroke-width="4.576" stroke="black" fill="none" stroke-linecap="round"></path><path d="M 368.746,233.793 C 373.095,233.125 372.926,233.075 377.332,233.656" stroke-width="4.983" stroke="black" fill="none" stroke-linecap="round"></path><path d="M 377.332,233.656 C 385.046,237.368 385.064,234.626 392.684,236.797" stroke-width="4.103" stroke="black" fill="none" stroke-linecap="round"></path><path d="M 392.684,236.797 C 407.319,236.737 405.534,235.836 418.309,230.594" stroke-width="3.367" stroke="black" fill="none" stroke-linecap="round"></path><path d="M 418.309,230.594 C 425.924,222.780 427.369,225.529 432.785,214.379" stroke-width="3.412" stroke="black" fill="none" stroke-linecap="round"></path><path d="M 354.121,196.691 C 350.677,196.822 351.133,197.586 348.145,198.480" stroke-width="5.559" stroke="black" fill="none" stroke-linecap="round"></path><path d="M 348.145,198.480 C 342.661,204.438 344.613,200.793 341.992,204.633" stroke-width="5.140" stroke="black" fill="none" stroke-linecap="round"></path><path d="M 245.660,316.785 C 278.864,307.291 279.115,308.396 312.570,300.008" stroke-width="3.508" stroke="black" fill="none" stroke-linecap="round"></path><path d="M 312.570,300.008 C 402.424,278.320 402.562,280.562 493.055,263.328" stroke-width="1.125" stroke="black" fill="none" stroke-linecap="round"></path><path d="M 493.055,263.328 C 518.385,262.605 517.994,259.203 543.711,261.773" stroke-width="1.720" stroke="black" fill="none" stroke-linecap="round"></path></svg>